<svg width="31" height="32" viewBox="0 0 31 32" fill="none" xmlns="http://www.w3.org/2000/svg">
<path d="M6.60002 24.7996C6.00002 23.9996 5.40002 22.5996 4.20002 20.7996C3.60002 19.7996 1.80002 17.7996 1.20002 16.9996C0.800024 16.1996 0.800023 15.7996 1.00002 14.9996C1.20002 13.7996 2.40002 12.7996 3.80002 12.7996C4.80002 12.7996 5.80002 13.5996 6.60002 14.1996C7.00002 14.5996 7.60002 15.3996 8.00002 15.7996C8.40002 16.1996 8.40002 16.3996 8.80002 16.7996C9.20002 17.3996 9.40003 17.7996 9.20003 16.9996C9.00003 15.9996 8.80002 14.3996 8.40002 12.7996C8.20002 11.5996 8.00002 11.3996 7.80002 10.5996C7.60002 9.59961 7.40003 8.99961 7.20003 7.99961C7.00003 7.39961 6.80002 5.79961 6.60002 4.99961C6.40002 3.99961 6.40002 2.19961 7.20003 1.39961C7.80003 0.799607 9.00002 0.599608 9.80002 0.999608C10.8 1.59961 11.4 2.99961 11.6 3.59961C12 4.59961 12.4 5.99961 12.6 7.59961C13 9.59961 13.6 12.5996 13.6 13.1996C13.6 12.3996 13.4 10.9996 13.6 10.1996C13.8 9.59961 14.2 8.79961 15 8.59961C15.6 8.39961 16.2 8.39961 16.8 8.39961C17.4 8.59961 18 8.99961 18.4 9.39961C19.2 10.5996 19.2 13.1996 19.2 12.9996C19.4 12.1996 19.4 10.5996 19.8 9.79961C20 9.39961 20.8 8.99961 21.2 8.79961C21.8 8.59961 22.6 8.59961 23.2 8.79961C23.6 8.79961 24.4 9.39961 24.6 9.79961C25 10.3996 25.2 12.3996 25.4 13.1996C25.4 13.3996 25.6 12.3996 26 11.7996C26.8 10.5996 29.6 10.1996 29.8 12.9996C29.8 14.3996 29.8 14.1996 29.8 15.1996C29.8 16.1996 29.8 16.7996 29.8 17.5996C29.8 18.3996 29.6 20.1996 29.4 20.9996C29.2 21.5996 28.6 22.9996 28 23.7996C28 23.7996 25.8 26.1996 25.6 27.3996C25.4 28.5996 25.4 28.5996 25.4 29.3996C25.4 30.1996 25.6 31.1996 25.6 31.1996C25.6 31.1996 24 31.3996 23.2 31.1996C22.4 30.9996 21.4 29.5996 21.2 28.9996C20.8 28.3996 20.2 28.3996 19.8 28.9996C19.4 29.7996 18.4 31.1996 17.6 31.1996C16.2 31.3996 13.4 31.1996 11.4 31.1996C11.4 31.1996 11.8 29.1996 11 28.3996C10.4 27.7996 9.40002 26.7996 8.80002 26.1996L6.60002 24.7996Z" fill="white"/>
<path d="M6.60002 24.7996C6.00002 23.9996 5.40002 22.5996 4.20002 20.7996C3.60002 19.7996 1.80002 17.7996 1.20002 16.9996C0.800024 16.1996 0.800023 15.7996 1.00002 14.9996C1.20002 13.7996 2.40002 12.7996 3.80002 12.7996C4.80002 12.7996 5.80002 13.5996 6.60002 14.1996C7.00002 14.5996 7.60002 15.3996 8.00002 15.7996C8.40002 16.1996 8.40002 16.3996 8.80002 16.7996C9.20002 17.3996 9.40003 17.7996 9.20003 16.9996C9.00003 15.9996 8.80002 14.3996 8.40002 12.7996C8.20002 11.5996 8.00002 11.3996 7.80002 10.5996C7.60002 9.59961 7.40003 8.99961 7.20003 7.99961C7.00003 7.39961 6.80002 5.79961 6.60002 4.99961C6.40002 3.99961 6.40002 2.19961 7.20003 1.39961C7.80003 0.799607 9.00002 0.599608 9.80002 0.999608C10.8 1.59961 11.4 2.99961 11.6 3.59961C12 4.59961 12.4 5.99961 12.6 7.59961C13 9.59961 13.6 12.5996 13.6 13.1996C13.6 12.3996 13.4 10.9996 13.6 10.1996C13.8 9.59961 14.2 8.79961 15 8.59961C15.6 8.39961 16.2 8.39961 16.8 8.39961C17.4 8.59961 18 8.99961 18.4 9.39961C19.2 10.5996 19.2 13.1996 19.2 12.9996C19.4 12.1996 19.4 10.5996 19.8 9.79961C20 9.39961 20.8 8.99961 21.2 8.79961C21.8 8.59961 22.6 8.59961 23.2 8.79961C23.6 8.79961 24.4 9.39961 24.6 9.79961C25 10.3996 25.2 12.3996 25.4 13.1996C25.4 13.3996 25.6 12.3996 26 11.7996C26.8 10.5996 29.6 10.1996 29.8 12.9996C29.8 14.3996 29.8 14.1996 29.8 15.1996C29.8 16.1996 29.8 16.7996 29.8 17.5996C29.8 18.3996 29.6 20.1996 29.4 20.9996C29.2 21.5996 28.6 22.9996 28 23.7996C28 23.7996 25.8 26.1996 25.6 27.3996C25.4 28.5996 25.4 28.5996 25.4 29.3996C25.4 30.1996 25.6 31.1996 25.6 31.1996C25.6 31.1996 24 31.3996 23.2 31.1996C22.4 30.9996 21.4 29.5996 21.2 28.9996C20.8 28.3996 20.2 28.3996 19.8 28.9996C19.4 29.7996 18.4 31.1996 17.6 31.1996C16.2 31.3996 13.4 31.1996 11.4 31.1996C11.4 31.1996 11.8 29.1996 11 28.3996C10.4 27.7996 9.40002 26.7996 8.80002 26.1996L6.60002 24.7996Z" stroke="black" stroke-width="0.75" stroke-linecap="round" stroke-linejoin="round"/>
<path d="M23.2 25.4V18.6" stroke="black" stroke-width="0.75" stroke-linecap="round"/>
<path d="M19.2 25.4L19 18.6" stroke="black" stroke-width="0.75" stroke-linecap="round"/>
<path d="M15.2 18.6V25.4" stroke="black" stroke-width="0.75" stroke-linecap="round"/>
</svg>
